<svg width="20" height="20" viewBox="0 0 20 20" fill="none" xmlns="http://www.w3.org/2000/svg">
<g clip-path="url(#clip0)">
<path d="M13.75 -0.000732422H6.25C2.79875 -0.000732422 0 2.79802 0 6.24927V13.7493C0 17.2005 2.79875 19.9993 6.25 19.9993H13.75C17.2013 19.9993 20 17.2005 20 13.7493V6.24927C20 2.79802 17.2013 -0.000732422 13.75 -0.000732422ZM18.125 13.7493C18.125 16.1618 16.1625 18.1243 13.75 18.1243H6.25C3.8375 18.1243 1.875 16.1618 1.875 13.7493V6.24927C1.875 3.83677 3.8375 1.87427 6.25 1.87427H13.75C16.1625 1.87427 18.125 3.83677 18.125 6.24927V13.7493Z" fill="white"/>
<path d="M10 4.99927C7.23875 4.99927 5 7.23802 5 9.99927C5 12.7605 7.23875 14.9993 10 14.9993C12.7613 14.9993 15 12.7605 15 9.99927C15 7.23802 12.7613 4.99927 10 4.99927ZM10 13.1243C8.2775 13.1243 6.875 11.7218 6.875 9.99927C6.875 8.27552 8.2775 6.87427 10 6.87427C11.7225 6.87427 13.125 8.27552 13.125 9.99927C13.125 11.7218 11.7225 13.1243 10 13.1243Z" fill="white"/>
<path d="M15.375 5.2905C15.743 5.2905 16.0412 4.99221 16.0412 4.62425C16.0412 4.2563 15.743 3.95801 15.375 3.95801C15.007 3.95801 14.7087 4.2563 14.7087 4.62425C14.7087 4.99221 15.007 5.2905 15.375 5.2905Z" fill="white"/>
</g>
<defs>
<clipPath id="clip0">
<rect width="20" height="20" fill="white" transform="translate(0 -0.000732422)"/>
</clipPath>
</defs>
</svg>
