<svg width="98" height="98" viewBox="0 0 98 98" fill="none" xmlns="http://www.w3.org/2000/svg">
<mask id="path-1-inside-1" fill="white">
<path d="M91.9817 65.1498L93.7152 63.4159C94.9337 62.1971 94.9337 60.2148 93.7152 58.996L85.8807 51.1595C84.6611 49.9397 82.6815 49.9397 81.462 51.1595L72.7933 59.8303L61.9512 48.9856L72.7933 38.1408L81.462 46.8116C82.0717 47.4215 82.871 47.7265 83.6713 47.7265C84.4716 47.7265 85.2709 47.4215 85.8807 46.8116L93.7152 38.9751C94.9337 37.7563 94.9337 35.774 93.7152 34.5553L91.9817 32.8213L97.2073 27.5944C97.718 27.0847 98 26.4029 98 25.6775C98 24.9532 97.718 24.2714 97.2073 23.7606L91.3414 17.8933L93.4659 15.7694C95.2712 13.9614 95.2712 11.0174 93.4648 9.2094L88.2501 3.99341C87.3768 3.1199 86.2117 2.6374 84.9704 2.6374C83.729 2.6374 82.5639 3.11881 81.6917 3.99341L79.5673 6.11727L74.2187 0.766225C73.1973 -0.255408 71.4082 -0.255408 70.3869 0.766225L65.1613 5.99311L63.4278 4.25916C62.2082 3.0393 60.2264 3.0393 59.0091 4.25916L51.1756 12.0957C50.5854 12.6849 50.2609 13.4691 50.2609 14.3056C50.2609 15.1421 50.5854 15.9263 51.1745 16.5155L59.8432 25.1863L49 36.0322L38.1579 25.1874L46.8266 16.5166C47.4157 15.9273 47.7402 15.1432 47.7402 14.3067C47.7402 13.4702 47.4157 12.686 46.8266 12.0979L38.992 4.26025C37.7725 3.04039 35.7929 3.04039 34.5733 4.26025L32.8398 5.9942L27.6142 0.767314C26.5928 -0.254319 24.8038 -0.254319 23.7824 0.767314L18.4327 6.11836L16.3094 3.9945C15.4361 3.12099 14.271 2.63849 13.0296 2.63849C11.7883 2.63849 10.6232 3.1199 9.751 3.9945L4.53413 9.21049C2.72875 11.0185 2.72876 13.9625 4.53522 15.7705L6.65856 17.8944L0.792711 23.7617C0.282022 24.2725 0 24.9532 0 25.6775C0 26.4029 0.282022 27.0847 0.792711 27.5955L6.01829 32.8224L4.28478 34.5564C3.06631 35.7751 3.06631 37.7574 4.28478 38.9762L12.1193 46.8127C12.7291 47.4226 13.5284 47.7276 14.3287 47.7276C15.129 47.7276 15.9283 47.4226 16.538 46.8127L25.2067 38.1419L36.0488 48.9877L25.2067 59.8325L16.537 51.1606C15.3174 49.9408 13.3378 49.9408 12.1182 51.1606L4.28369 58.9971C3.06522 60.2159 3.06522 62.1982 4.28369 63.417L6.0172 65.1509L0.791622 70.3789C0.282022 70.8886 0 71.5704 0 72.2947C0 73.0201 0.282022 73.7019 0.792711 74.2127L6.14133 79.5627L4.01691 81.6865C2.21153 83.4946 2.21153 86.4386 4.018 88.2466L9.23269 93.4626C10.106 94.3361 11.2711 94.8186 12.5124 94.8186C13.7538 94.8186 14.9189 94.3372 15.7911 93.4626L17.9144 91.3387L23.7813 97.2071C24.292 97.7179 24.9726 98 25.6978 98C26.423 98 27.1035 97.7179 27.6142 97.2071L32.8409 91.9791L34.5744 93.7131C35.1842 94.323 35.9834 94.628 36.7838 94.628C37.5841 94.628 38.3833 94.323 38.9931 93.7131L46.8277 85.8765C48.0461 84.6578 48.0461 82.6755 46.8277 81.4567L38.159 72.7859L49 61.9411L59.8421 72.7859L51.1734 81.4567C49.955 82.6755 49.955 84.6578 51.1734 85.8765L59.008 93.7131C59.6178 94.323 60.417 94.628 61.2173 94.628C62.0177 94.628 62.8169 94.323 63.4267 93.7131L65.1602 91.9791L70.3869 97.2071C70.8976 97.7179 71.5781 98 72.3033 98C73.0285 98 73.7091 97.7179 74.2198 97.2071L80.0856 91.3398L82.2089 93.4626C83.0822 94.3361 84.2473 94.8186 85.4887 94.8186C86.73 94.8186 87.8951 94.3372 88.7673 93.4626L93.9842 88.2466C95.7896 86.4386 95.7896 83.4946 93.9831 81.6865L91.8598 79.5627L97.2084 74.2127C97.718 73.7008 98 73.019 98 72.2947C98 71.5704 97.718 70.8886 97.2073 70.3778L91.9817 65.1498ZM83.9522 6.25342C84.2212 5.98331 84.5838 5.83409 84.9704 5.83409C85.3569 5.83409 85.7195 5.98331 85.9896 6.25342L91.2042 11.4694C91.7672 12.0314 91.7672 12.9474 91.2053 13.5094L89.082 15.6333L81.8278 8.37728L83.9522 6.25342ZM72.3022 3.36932L94.6049 25.6775L89.7223 30.5613L67.4196 8.25312L72.3022 3.36932ZM53.4329 14.3568L61.1672 6.51917L64.7628 10.1036C64.7824 10.1243 64.7965 10.1493 64.8172 10.17L87.8058 33.1644C87.943 33.3016 88.0933 33.4182 88.2523 33.5217L91.4558 36.7151L83.6713 44.5015L53.4329 14.3568ZM62.1015 27.4463L70.535 35.8819L59.6929 46.7266L51.2594 38.2911L62.1015 27.4463ZM6.79576 13.5094C6.2328 12.9474 6.2328 12.0314 6.79467 11.4694L12.0115 6.25342C12.2805 5.98331 12.6431 5.83409 13.0296 5.83409C13.4162 5.83409 13.7788 5.98331 14.0488 6.25342L16.1722 8.37728L8.91909 15.6322L6.79576 13.5094ZM3.39516 25.6775L25.6978 3.36932L30.5804 8.25312L8.27664 30.5613L3.39516 25.6775ZM14.3287 44.5026L6.54422 36.8164L10.1278 33.22C10.1484 33.2004 10.1735 33.1862 10.1942 33.1655L33.1828 10.1711C33.32 10.0339 33.4376 9.88359 33.54 9.72457L36.7326 6.52026L44.5671 14.2566L14.3287 44.5026ZM13.5305 91.2025C12.9915 91.7439 12.0333 91.7439 11.4932 91.2025L6.27853 85.9865C5.71558 85.4245 5.71558 84.5086 6.27744 83.9466L8.40187 81.8227L15.655 89.0776L13.5305 91.2025ZM25.6978 94.6029L3.39516 72.2947L8.27773 67.4109L30.5804 89.7202L25.6978 94.6029ZM44.517 83.6666L36.8328 91.453L33.2372 87.8686C33.2176 87.8479 33.2035 87.8229 33.1828 87.8022L10.1942 64.8078C10.0624 64.676 9.91542 64.5617 9.7608 64.4636L6.54422 61.2561L14.2786 53.4195L44.517 83.6666ZM35.8985 70.5259L27.4661 62.0914L38.3082 51.2467L46.7406 59.6822L35.8985 70.5259ZM27.4661 35.8808L35.8985 27.4463L70.5339 62.0904L62.1004 70.5259L27.4661 35.8808ZM64.8172 87.8022C64.68 87.9394 64.5635 88.0897 64.46 88.2487L61.2674 91.453L53.483 83.6666L83.6223 53.4206L91.4569 61.1569L87.8679 64.7588C87.8483 64.7773 87.8254 64.7893 87.8069 64.8078L64.8172 87.8022ZM91.7215 83.9466C92.2844 84.5086 92.2844 85.4245 91.7226 85.9865L86.5057 91.2025C85.9667 91.7439 85.0085 91.7439 84.4684 91.2025L82.345 89.0787L89.5992 81.8227L91.7215 83.9466ZM72.3022 94.6029L67.4196 89.7191L89.7223 67.4098L94.6049 72.2936L72.3022 94.6029Z"/>
</mask>
<path d="M91.9817 65.1498L93.7152 63.4159C94.9337 62.1971 94.9337 60.2148 93.7152 58.996L85.8807 51.1595C84.6611 49.9397 82.6815 49.9397 81.462 51.1595L72.7933 59.8303L61.9512 48.9856L72.7933 38.1408L81.462 46.8116C82.0717 47.4215 82.871 47.7265 83.6713 47.7265C84.4716 47.7265 85.2709 47.4215 85.8807 46.8116L93.7152 38.9751C94.9337 37.7563 94.9337 35.774 93.7152 34.5553L91.9817 32.8213L97.2073 27.5944C97.718 27.0847 98 26.4029 98 25.6775C98 24.9532 97.718 24.2714 97.2073 23.7606L91.3414 17.8933L93.4659 15.7694C95.2712 13.9614 95.2712 11.0174 93.4648 9.2094L88.2501 3.99341C87.3768 3.1199 86.2117 2.6374 84.9704 2.6374C83.729 2.6374 82.5639 3.11881 81.6917 3.99341L79.5673 6.11727L74.2187 0.766225C73.1973 -0.255408 71.4082 -0.255408 70.3869 0.766225L65.1613 5.99311L63.4278 4.25916C62.2082 3.0393 60.2264 3.0393 59.0091 4.25916L51.1756 12.0957C50.5854 12.6849 50.2609 13.4691 50.2609 14.3056C50.2609 15.1421 50.5854 15.9263 51.1745 16.5155L59.8432 25.1863L49 36.0322L38.1579 25.1874L46.8266 16.5166C47.4157 15.9273 47.7402 15.1432 47.7402 14.3067C47.7402 13.4702 47.4157 12.686 46.8266 12.0979L38.992 4.26025C37.7725 3.04039 35.7929 3.04039 34.5733 4.26025L32.8398 5.9942L27.6142 0.767314C26.5928 -0.254319 24.8038 -0.254319 23.7824 0.767314L18.4327 6.11836L16.3094 3.9945C15.4361 3.12099 14.271 2.63849 13.0296 2.63849C11.7883 2.63849 10.6232 3.1199 9.751 3.9945L4.53413 9.21049C2.72875 11.0185 2.72876 13.9625 4.53522 15.7705L6.65856 17.8944L0.792711 23.7617C0.282022 24.2725 0 24.9532 0 25.6775C0 26.4029 0.282022 27.0847 0.792711 27.5955L6.01829 32.8224L4.28478 34.5564C3.06631 35.7751 3.06631 37.7574 4.28478 38.9762L12.1193 46.8127C12.7291 47.4226 13.5284 47.7276 14.3287 47.7276C15.129 47.7276 15.9283 47.4226 16.538 46.8127L25.2067 38.1419L36.0488 48.9877L25.2067 59.8325L16.537 51.1606C15.3174 49.9408 13.3378 49.9408 12.1182 51.1606L4.28369 58.9971C3.06522 60.2159 3.06522 62.1982 4.28369 63.417L6.0172 65.1509L0.791622 70.3789C0.282022 70.8886 0 71.5704 0 72.2947C0 73.0201 0.282022 73.7019 0.792711 74.2127L6.14133 79.5627L4.01691 81.6865C2.21153 83.4946 2.21153 86.4386 4.018 88.2466L9.23269 93.4626C10.106 94.3361 11.2711 94.8186 12.5124 94.8186C13.7538 94.8186 14.9189 94.3372 15.7911 93.4626L17.9144 91.3387L23.7813 97.2071C24.292 97.7179 24.9726 98 25.6978 98C26.423 98 27.1035 97.7179 27.6142 97.2071L32.8409 91.9791L34.5744 93.7131C35.1842 94.323 35.9834 94.628 36.7838 94.628C37.5841 94.628 38.3833 94.323 38.9931 93.7131L46.8277 85.8765C48.0461 84.6578 48.0461 82.6755 46.8277 81.4567L38.159 72.7859L49 61.9411L59.8421 72.7859L51.1734 81.4567C49.955 82.6755 49.955 84.6578 51.1734 85.8765L59.008 93.7131C59.6178 94.323 60.417 94.628 61.2173 94.628C62.0177 94.628 62.8169 94.323 63.4267 93.7131L65.1602 91.9791L70.3869 97.2071C70.8976 97.7179 71.5781 98 72.3033 98C73.0285 98 73.7091 97.7179 74.2198 97.2071L80.0856 91.3398L82.2089 93.4626C83.0822 94.3361 84.2473 94.8186 85.4887 94.8186C86.73 94.8186 87.8951 94.3372 88.7673 93.4626L93.9842 88.2466C95.7896 86.4386 95.7896 83.4946 93.9831 81.6865L91.8598 79.5627L97.2084 74.2127C97.718 73.7008 98 73.019 98 72.2947C98 71.5704 97.718 70.8886 97.2073 70.3778L91.9817 65.1498ZM83.9522 6.25342C84.2212 5.98331 84.5838 5.83409 84.9704 5.83409C85.3569 5.83409 85.7195 5.98331 85.9896 6.25342L91.2042 11.4694C91.7672 12.0314 91.7672 12.9474 91.2053 13.5094L89.082 15.6333L81.8278 8.37728L83.9522 6.25342ZM72.3022 3.36932L94.6049 25.6775L89.7223 30.5613L67.4196 8.25312L72.3022 3.36932ZM53.4329 14.3568L61.1672 6.51917L64.7628 10.1036C64.7824 10.1243 64.7965 10.1493 64.8172 10.17L87.8058 33.1644C87.943 33.3016 88.0933 33.4182 88.2523 33.5217L91.4558 36.7151L83.6713 44.5015L53.4329 14.3568ZM62.1015 27.4463L70.535 35.8819L59.6929 46.7266L51.2594 38.2911L62.1015 27.4463ZM6.79576 13.5094C6.2328 12.9474 6.2328 12.0314 6.79467 11.4694L12.0115 6.25342C12.2805 5.98331 12.6431 5.83409 13.0296 5.83409C13.4162 5.83409 13.7788 5.98331 14.0488 6.25342L16.1722 8.37728L8.91909 15.6322L6.79576 13.5094ZM3.39516 25.6775L25.6978 3.36932L30.5804 8.25312L8.27664 30.5613L3.39516 25.6775ZM14.3287 44.5026L6.54422 36.8164L10.1278 33.22C10.1484 33.2004 10.1735 33.1862 10.1942 33.1655L33.1828 10.1711C33.32 10.0339 33.4376 9.88359 33.54 9.72457L36.7326 6.52026L44.5671 14.2566L14.3287 44.5026ZM13.5305 91.2025C12.9915 91.7439 12.0333 91.7439 11.4932 91.2025L6.27853 85.9865C5.71558 85.4245 5.71558 84.5086 6.27744 83.9466L8.40187 81.8227L15.655 89.0776L13.5305 91.2025ZM25.6978 94.6029L3.39516 72.2947L8.27773 67.4109L30.5804 89.7202L25.6978 94.6029ZM44.517 83.6666L36.8328 91.453L33.2372 87.8686C33.2176 87.8479 33.2035 87.8229 33.1828 87.8022L10.1942 64.8078C10.0624 64.676 9.91542 64.5617 9.7608 64.4636L6.54422 61.2561L14.2786 53.4195L44.517 83.6666ZM35.8985 70.5259L27.4661 62.0914L38.3082 51.2467L46.7406 59.6822L35.8985 70.5259ZM27.4661 35.8808L35.8985 27.4463L70.5339 62.0904L62.1004 70.5259L27.4661 35.8808ZM64.8172 87.8022C64.68 87.9394 64.5635 88.0897 64.46 88.2487L61.2674 91.453L53.483 83.6666L83.6223 53.4206L91.4569 61.1569L87.8679 64.7588C87.8483 64.7773 87.8254 64.7893 87.8069 64.8078L64.8172 87.8022ZM91.7215 83.9466C92.2844 84.5086 92.2844 85.4245 91.7226 85.9865L86.5057 91.2025C85.9667 91.7439 85.0085 91.7439 84.4684 91.2025L82.345 89.0787L89.5992 81.8227L91.7215 83.9466ZM72.3022 94.6029L67.4196 89.7191L89.7223 67.4098L94.6049 72.2936L72.3022 94.6029Z" fill="#2C2C2C" stroke="black" stroke-width="2" mask="url(#path-1-inside-1)"/>
<path d="M14.876 21.4C15.968 21.4 16.916 21.58 17.72 21.94C18.536 22.3 19.16 22.816 19.592 23.488C20.024 24.16 20.24 24.958 20.24 25.882C20.24 26.794 20.024 27.592 19.592 28.276C19.16 28.948 18.536 29.464 17.72 29.824C16.916 30.184 15.968 30.364 14.876 30.364H12.032V34H9.692V21.4H14.876ZM14.768 28.384C15.788 28.384 16.562 28.168 17.09 27.736C17.618 27.304 17.882 26.686 17.882 25.882C17.882 25.078 17.618 24.46 17.09 24.028C16.562 23.596 15.788 23.38 14.768 23.38H12.032V28.384H14.768ZM46.6385 34.18C45.3545 34.18 44.1965 33.904 43.1645 33.352C42.1325 32.788 41.3225 32.014 40.7345 31.03C40.1465 30.034 39.8525 28.924 39.8525 27.7C39.8525 26.476 40.1465 25.372 40.7345 24.388C41.3225 23.392 42.1325 22.618 43.1645 22.066C44.1965 21.502 45.3545 21.22 46.6385 21.22C47.9225 21.22 49.0805 21.502 50.1125 22.066C51.1445 22.618 51.9545 23.386 52.5425 24.37C53.1305 25.354 53.4245 26.464 53.4245 27.7C53.4245 28.936 53.1305 30.046 52.5425 31.03C51.9545 32.014 51.1445 32.788 50.1125 33.352C49.0805 33.904 47.9225 34.18 46.6385 34.18ZM46.6385 32.128C47.4785 32.128 48.2345 31.942 48.9065 31.57C49.5785 31.186 50.1065 30.658 50.4905 29.986C50.8745 29.302 51.0665 28.54 51.0665 27.7C51.0665 26.86 50.8745 26.104 50.4905 25.432C50.1065 24.748 49.5785 24.22 48.9065 23.848C48.2345 23.464 47.4785 23.272 46.6385 23.272C45.7985 23.272 45.0425 23.464 44.3705 23.848C43.6985 24.22 43.1705 24.748 42.7865 25.432C42.4025 26.104 42.2105 26.86 42.2105 27.7C42.2105 28.54 42.4025 29.302 42.7865 29.986C43.1705 30.658 43.6985 31.186 44.3705 31.57C45.0425 31.942 45.7985 32.128 46.6385 32.128ZM91.9146 21.4L87.7386 34H85.2546L82.1406 24.676L78.9726 34H76.4706L72.2946 21.4H74.7246L77.8566 30.976L81.1146 21.4H83.2746L86.4606 31.03L89.6826 21.4H91.9146ZM19.142 54.038V56H9.692V43.4H18.89V45.362H12.032V48.638H18.116V50.564H12.032V54.038H19.142ZM47.9946 56L45.4206 52.31C45.3126 52.322 45.1506 52.328 44.9346 52.328H42.0906V56H39.7506V43.4H44.9346C46.0266 43.4 46.9746 43.58 47.7786 43.94C48.5946 44.3 49.2186 44.816 49.6506 45.488C50.0826 46.16 50.2986 46.958 50.2986 47.882C50.2986 48.83 50.0646 49.646 49.5966 50.33C49.1406 51.014 48.4806 51.524 47.6166 51.86L50.5146 56H47.9946ZM47.9406 47.882C47.9406 47.078 47.6766 46.46 47.1486 46.028C46.6206 45.596 45.8466 45.38 44.8266 45.38H42.0906V50.402H44.8266C45.8466 50.402 46.6206 50.186 47.1486 49.754C47.6766 49.31 47.9406 48.686 47.9406 47.882ZM12.032 67.362V71.196H18.116V73.176H12.032V78H9.692V65.4H18.89V67.362H12.032ZM43.8329 65.4H46.1729V78H43.8329V65.4Z" fill="#43C77C"/>
<path d="M80.248 67.38H76.072V65.4H86.764V67.38H82.588V78H80.248V67.38Z" fill="#43C77C"/>
</svg>
